<svg width="137" height="36" viewBox="0 0 137 36" fill="none" xmlns="http://www.w3.org/2000/svg">
<path fill-rule="evenodd" clip-rule="evenodd" d="M0 0V16.5198C0 28.5259 9.22394 32.6924 15.9652 35.7442H15.9833L16.527 36C16.6538 35.9269 16.7807 35.8721 16.9257 35.8173C16.9981 35.7807 17.0888 35.7442 17.1612 35.7076C23.9206 32.6741 33.1808 28.4893 33.1808 16.5198V0H0ZM21.0212 24.1218L20.6587 23.1533L15.8384 10.3614C15.5484 11.1107 14.8779 12.9198 14.153 14.8569L11.3804 22.4041C11.2536 22.7695 11.3261 22.9523 11.4167 23.0802C11.616 23.3178 12.0509 23.3178 12.7396 23.3178H12.8664V24.1218H7.6836V23.3178H8.08227C8.78902 23.3178 9.36891 23.0071 9.80383 22.1299L10.3294 20.9239L15.1316 8.53401L14.2799 6.24975H18.756L24.9354 22.6416L25.4972 24.1218H21.0212Z" fill="#EC3944"/>
<path d="M53.0785 23.1358H51.8643C50.2334 23.1358 49.581 22.7886 49.581 21.3998V8.86372C49.581 7.45662 49.8709 7.29215 51.6469 7.09113V6.2688H44.1626V7.09113C45.9385 7.29215 46.2285 7.43834 46.2285 8.86372V21.5277C46.2285 22.9348 45.9385 23.0993 44.1626 23.3003V24.1226H57.5183L58.4063 18.75H57.6089C55.9055 21.8566 55.0719 23.1358 53.0785 23.1358Z" fill="#EC3944"/>
<path d="M69.8591 22.1307V14.4921C69.8591 11.6048 68.1556 10.3987 65.0387 10.3987C62.3204 10.3987 60.1821 11.6048 60.1821 13.9256C60.1821 14.3642 60.2183 14.5286 60.327 14.8393H63.3352C63.2446 14.4738 63.2084 13.9256 63.2084 13.4687C63.2084 11.7144 63.8608 11.2027 64.9118 11.2027C66.0716 11.2027 66.6696 11.5682 66.6696 13.8342V15.8809L62.9003 17.288C60.9794 18.0373 59.4028 18.8962 59.4028 21.0708C59.4028 23.0627 60.762 24.3236 62.7735 24.3236C64.5675 24.3236 65.9266 23.1906 66.7421 22.1124L66.7602 22.0941V24.1226H71.4719V23.3185C70.2577 23.2271 69.8591 23.0626 69.8591 22.1307ZM66.6878 21.5276C65.8904 22.1307 65.3105 22.4962 64.5132 22.5144C63.1178 22.5144 62.4835 21.5642 62.4835 20.2119C62.4835 18.8048 63.1359 18.1652 64.2594 17.7449L66.6878 16.7581V21.5276Z" fill="#EC3944"/>
<path d="M93.2181 22.1124V14.5287C93.2181 11.8241 92.1308 10.4353 89.8293 10.4353C87.7453 10.4353 86.3137 11.6414 85.2083 12.9754C84.8821 11.2211 83.8129 10.4353 81.9826 10.4353C79.9168 10.4353 78.5939 11.5683 77.4885 12.9205V10.417H77.0717L72.7587 11.7693V12.2079L74.3172 13.1216V22.149C74.3172 23.0627 73.9366 23.2637 72.7043 23.3185V24.1226H79.0651V23.3185C77.8509 23.2637 77.4885 23.0809 77.4885 22.149V13.5601C78.3402 12.9023 79.21 12.3723 80.2973 12.3723C81.6746 12.3723 82.2001 13.1398 82.2001 14.6931V22.149C82.2001 23.0627 81.8558 23.2637 80.6235 23.3185V24.1226H86.9299V23.3185C85.7157 23.2637 85.3714 23.0809 85.3714 22.149V13.5601C86.2231 12.9023 87.093 12.3723 88.1803 12.3723C89.5575 12.3723 90.083 13.1398 90.083 14.6931L90.0649 22.0941C90.0649 23.0079 89.7387 23.2637 88.5065 23.3185V24.1226H94.8672V23.3185C93.6349 23.282 93.2181 23.0444 93.2181 22.1124Z" fill="#EC3944"/>
<path d="M103.874 10.4718C101.88 10.4718 100.521 11.5135 99.6331 12.8109V4.18555H99.1438L94.9033 5.42819V5.88504L96.4618 6.70738V24.1226H96.9873L98.437 23.483C99.4881 24.0861 100.666 24.3967 102.098 24.3967C105.867 24.3967 108.875 21.5094 108.875 16.6119C108.893 12.7744 106.99 10.4718 103.874 10.4718ZM102.098 23.5196C101.119 23.5196 100.231 23.081 99.615 22.0759V13.4505C100.231 12.8292 101.155 12.4089 102.061 12.4089C104.58 12.4089 105.686 14.748 105.686 17.7998C105.704 20.9612 104.345 23.483 102.098 23.5196Z" fill="#EC3944"/>
<path d="M122.684 22.149V4.16724H122.212L117.972 5.40988V5.84845L119.53 6.67079V11.3672C118.914 10.7825 117.936 10.4353 116.722 10.4353C113.115 10.4353 110.343 13.2312 110.343 17.9825C110.343 21.7652 112.372 24.3053 115.435 24.3053C117.211 24.3053 118.516 23.3368 119.53 21.9114V22.0759V24.1226H124.296V23.3185C123.064 23.2637 122.684 23.0809 122.684 22.149ZM119.53 21.3997C118.914 22.021 118.081 22.3317 117.138 22.3317C114.746 22.3317 113.442 19.9926 113.442 16.886C113.442 13.6332 114.764 11.55 116.975 11.55C118.552 11.55 119.53 12.8109 119.53 14.8941V21.3997Z" fill="#EC3944"/>
<path d="M135.387 22.1307V14.4921C135.387 11.6048 133.684 10.3987 130.567 10.3987C127.848 10.3987 125.71 11.6048 125.71 13.9256C125.71 14.3642 125.746 14.5286 125.855 14.8393H128.863C128.773 14.4738 128.736 13.9256 128.736 13.4687C128.736 11.7144 129.389 11.2027 130.44 11.2027C131.6 11.2027 132.198 11.5682 132.198 13.8342V15.8809L128.428 17.288C126.507 18.0373 124.931 18.8962 124.931 21.0708C124.931 23.0627 126.29 24.3236 128.301 24.3236C130.095 24.3236 131.455 23.1906 132.27 22.1124V22.0941H132.288V24.1226L137 24.1408V23.3185C135.786 23.2271 135.387 23.0626 135.387 22.1307ZM132.216 21.5276C131.418 22.1307 130.838 22.4962 130.023 22.5144C128.628 22.5144 127.993 21.5642 127.993 20.2119C127.993 18.8048 128.646 18.1652 129.769 17.7449L132.198 16.7581L132.216 21.5276Z" fill="#EC3944"/>
</svg>
