<svg id="Layer_1" data-name="Layer 1" xmlns="http://www.w3.org/2000/svg" viewBox="0 0 252 252">
    <defs>
        <style>
            .cls-1 {
                fill: none;
                stroke-linecap: round;
                stroke-linejoin: round;
                stroke-width: 2.25px;
            }

            .cls-2 {
                stroke: none;
            }
        </style>
    </defs>
    <title>Lambda_Stamps_course-city</title>
    <path class="cls-1"
        d="M104.79,85.32h16.37a2.16,2.16,0,0,1,2.16,2.16v11a2.16,2.16,0,0,0,1.42,2l7.73,2.81a2.35,2.35,0,0,0,.74.13h27.06a2.15,2.15,0,0,1,2.16,2.16v9.16a2.15,2.15,0,0,0,.37,1.2l5.32,8a2.14,2.14,0,0,1,.36,1.2v10.5a2.14,2.14,0,0,1-1,1.8l-22.26,14.68a2.16,2.16,0,0,0-1,1.8v10.8a2.16,2.16,0,0,1-2.91,2c-4-1.48-10.7-4-10.7-4.13s-13.9-19.06-17.08-23.38a2.16,2.16,0,0,0-1.73-.87h-1.63a2.15,2.15,0,0,0-2,1.26L107,142.54a2.17,2.17,0,0,1-2.89,1.05l-10.42-4.92a2.27,2.27,0,0,1-.91-.8l-9.68-15.39a2.16,2.16,0,0,1,1.83-3.31h16.35a2.16,2.16,0,0,0,2.16-2.21l-.76-29.43A2.16,2.16,0,0,1,104.79,85.32Z" />
    <polygon class="cls-2"
        points="115.64 109.26 117.59 113.21 121.95 113.85 118.8 116.92 119.54 121.27 115.64 119.22 111.74 121.27 112.48 116.92 109.33 113.85 113.69 113.21 115.64 109.26" />
</svg>
