<svg id="Layer_1" data-name="Layer 1" xmlns="http://www.w3.org/2000/svg" xmlns:xlink="http://www.w3.org/1999/xlink"
    viewBox="0 0 252 252">
    <defs>
        <style>
            .cls-1,
            .cls-3 {
                fill: none;
            }

            .cls-2 {
                clip-path: url(#clip-path);
            }

            .cls-3 {
                stroke-linecap: round;
                stroke-linejoin: round;
                stroke-width: 2.58px;
            }
        </style>
        <clipPath id="clip-path">
            <circle class="cls-1" cx="126.28" cy="126.39" r="58.05" />
        </clipPath>
    </defs>
    <title>Lambda_Stamps_course-city</title>
    <g class="cls-2">
        <path class="cls-3"
            d="M123.52,173l-1.07,32.5h7.65L129,173l26.49,4.88a2.4,2.4,0,0,0,2.73-3.06L155.83,167a2.4,2.4,0,0,1,.82-2.6l25.5-19.79a2.39,2.39,0,0,0-.18-3.91l-3.83-2.44a2.41,2.41,0,0,1-.94-2.93l5.89-14.45a2.39,2.39,0,0,0-2.76-3.24l-12.1,2.82a2.4,2.4,0,0,1-2.75-1.39l-1.88-4.36a2.4,2.4,0,0,0-3.88-.76l-10,9.8a2.4,2.4,0,0,1-4-2.12l4-23.08a2.39,2.39,0,0,0-3.4-2.57l-4.47,2.15a2.39,2.39,0,0,1-3-.83L128.27,81.41a2.39,2.39,0,0,0-4,0L113.75,97.26a2.39,2.39,0,0,1-3,.83l-4.47-2.15a2.4,2.4,0,0,0-3.4,2.57l4,23.08a2.4,2.4,0,0,1-4,2.12l-10-9.8a2.4,2.4,0,0,0-3.88.76L87.07,119a2.4,2.4,0,0,1-2.74,1.39L72.22,117.6a2.39,2.39,0,0,0-2.76,3.24l5.89,14.45a2.4,2.4,0,0,1-.94,2.93l-3.83,2.44a2.39,2.39,0,0,0-.18,3.91l25.5,19.79a2.38,2.38,0,0,1,.82,2.6l-2.42,7.86A2.4,2.4,0,0,0,97,177.88l26.5-4.88v0" />
    </g>
</svg>
