<svg id="Layer_1" data-name="Layer 1" xmlns="http://www.w3.org/2000/svg" xmlns:xlink="http://www.w3.org/1999/xlink"
    viewBox="0 0 252 252">
    <defs>
        <style>
            .cls-1,
            .cls-3,
            .cls-4 {
                fill: none;
            }

            .cls-2 {
                clip-path: url(#clip-path);
            }

            .cls-3,
            .cls-4 {
                stroke-linecap: round;
                stroke-linejoin: round;
            }

            .cls-3 {
                stroke-width: 2.25px;
            }

            .cls-4 {
                stroke-width: 1.8px;
            }
        </style>
        <clipPath id="clip-path">
            <circle class="cls-1" cx="126" cy="126.39" r="58.05" />
        </clipPath>
    </defs>
    <title>Lambda_Stamps_course-city</title>
    <g class="cls-2">
        <path class="cls-3"
            d="M149.85,118.28a.46.46,0,0,1-.26-.38c0-1-.43-4.32-5.41-4.71-5.83-.47-11.22-2.28-12.27-2.28a23.21,23.21,0,0,0-13.74,3.53.19.19,0,0,1-.09,0c-.56.19-6.18,2.16-7.75,7a106.39,106.39,0,0,0-2.88,11.65v0c0,.37-.32,4.84-1.42,6.41s-1.43,11.21-.18,14.88a.43.43,0,0,1-.23.53A21.09,21.09,0,0,1,98,157c-4,.09-1.74,2.27,1.51,2.17,2.73-.09,6.78-.63,8-.8a.46.46,0,0,1,.47.28c.76,2.07,5.37,13.17,16,13.69,11.69.58,21-10.77,21-10.77a6,6,0,0,1,5.06-2.07.43.43,0,0,0,.37-.75,5.48,5.48,0,0,0-3.61-1.44.45.45,0,0,1-.42-.34l-.34-1.63a.44.44,0,0,0-.68-.27c-1.62,1.12-6.32,4.4-6.59,4.66s-10.84,9.45-17.15,2.43l0-.05a8.22,8.22,0,0,1-1.12-6.1.43.43,0,0,1,.65-.29h0a.43.43,0,0,0,.62-.2c.49-1.09,1.82-3.8,3.15-4.05a8.93,8.93,0,0,0,3.09-1,.43.43,0,0,1,.68.32c.15,1.78.49,5.15,1,5.33.63.24,2.29,1.59,5.38-1.88a2.93,2.93,0,0,1,2.77-1.18c2,.08,5-3.11,5.22-3.37l0,0a5.61,5.61,0,0,1,3.07-1.24c1.74-.07,8.4-4.16,8.41-7.57S154.74,120.74,149.85,118.28Z" />
        <path class="cls-3" d="M105.62,155s8.32-3.13,12.58-7.15" />
        <path class="cls-3" d="M107.16,158.37s9.32-1.64,13.8-5.57" />
        <path class="cls-3" d="M117.13,146.72a12.27,12.27,0,0,1,4.32,9" />
        <path class="cls-3" d="M105.05,146.29a15.74,15.74,0,0,1,7.06-1.42" />
        <path class="cls-3" d="M105.54,150.92A11,11,0,0,1,111,149" />
        <path class="cls-3" d="M110.15,163.08s2.73-.83,3.34-1.64" />
        <path class="cls-3" d="M115.2,168.7a4.26,4.26,0,0,0,2.15-2.55" />
        <path class="cls-3" d="M120.91,171.83a8.39,8.39,0,0,0,1-3.13" />
        <path class="cls-3" d="M127.93,172s0-.08-.4-1.76" />
        <path class="cls-3" d="M128.54,150.33s-2.76-10.47-.91-16.48,3.41-13.24,2.09-16.5" />
        <path class="cls-3"
            d="M115.49,134.37c-.32-2.22,3.15-4.26,4.85-4.25a.47.47,0,0,1,.47.26c.28.64-.37,2.36-1.83,3.43a5,5,0,0,1-3,1.13C115.62,135,115.53,134.68,115.49,134.37Z" />
        <path class="cls-3" d="M112.14,133.79s.65-7.23,6.12-7.9" />
        <path class="cls-3" d="M117.12,138.94s6.36-3,6.6-8.81" />
        <path class="cls-3"
            d="M92.42,106.38l-.13,45.5s-1.39,19.38,21.08,25.2c0,0,12.22,1.58,12.2,10.72h.2c0-9.14,12.26-10.65,12.26-10.65,22.5-5.69,21.22-25.08,21.22-25.08l.13-45.49Z" />
        <path class="cls-4" d="M103.37,105.7a24.93,24.93,0,0,1,45.12.44" />
        <path class="cls-4" d="M102.89,106.28,91.82,91.53a.68.68,0,0,1,.9-1l14.59,9.14" />
        <path class="cls-4" d="M149.13,106.45l11.05-14.73a.68.68,0,0,0-.9-1l-14.69,9.2" />
        <path class="cls-4" d="M109.39,97.47l-5.74-17.84a.68.68,0,0,1,1.18-.64l11.68,14.35" />
        <path class="cls-4"
            d="M106,98.74a8.57,8.57,0,0,0-2.84-3.13c-3.11-2.09-4-6.31-4-6.31s-.71-4.93-3.85-5.39a7.19,7.19,0,0,1,5.41,2.91s2.11,3.33,4.49,4.39a11.89,11.89,0,0,1,2.45,1.17" />
        <path class="cls-4"
            d="M145,99.73a11.38,11.38,0,0,1,3.92-4.12C152,93.52,153,89.3,153,89.3s.71-4.93,3.85-5.39a7.19,7.19,0,0,0-5.41,2.91s-2.11,3.33-4.49,4.39a10.86,10.86,0,0,0-1.92,1" />
        <path class="cls-4"
            d="M116.17,93.54a7.29,7.29,0,0,0-1.06-6.1c-2.2-3.25-1-7.43-1-7.43s1.45-4.76-1.2-6.51c0,0,3.06.75,3.66,4.92,0,0,.12,4,2.21,5.88,0,0,3.57,3.26,3.1,7.08" />
        <path class="cls-4"
            d="M135.89,93.54a7.31,7.31,0,0,1,1.07-6.1c2.19-3.25,1-7.43,1-7.43s-1.45-4.76,1.2-6.51c0,0-3.06.75-3.66,4.92,0,0-.12,4-2.21,5.88,0,0-3.57,3.26-3.1,7.08" />
        <path class="cls-4" d="M121.72,91.82l3-18.19a.68.68,0,0,1,1.34,0l4,18.14" />
        <path class="cls-4" d="M142.93,98.22l6-18.46a.68.68,0,0,0-1.18-.63L136.07,93.45" />
    </g>
</svg>
