<svg id="Layer_1" data-name="Layer 1" xmlns="http://www.w3.org/2000/svg" viewBox="0 0 252 252"><defs><style>.cls-1{fill:none;stroke-linecap:round;stroke-linejoin:round;stroke-width:2.25px;}</style></defs><title>Lambda_Stamps_course-city</title><path class="cls-1" d="M171.53,146.73l-1.28-48.81a.57.57,0,0,0-.58-.55l-64.06,2-.14,0-5.11-1.15a.57.57,0,0,0-.66.36l-.48,1.36a.54.54,0,0,0,.15.6l3.57,3.3a.55.55,0,0,1,.12.67l-.39.75a.55.55,0,0,1-.8.22l-.74-.48a.56.56,0,0,0-.85.6l0,.19a1,1,0,0,1,0,.16l-.17,3a.53.53,0,0,0,.12.38l.49.63a.56.56,0,0,0,.73.13h0a.56.56,0,0,1,.79.22l3.57,6.72a.64.64,0,0,1,.07.27v1.18a.57.57,0,0,1-.1.31l-.79,1.17a.59.59,0,0,0,0,.56l.61,1.25a.54.54,0,0,1,.06.25v3.93a.71.71,0,0,0,0,.21l1,2.51a.56.56,0,0,1-.18.65l-3.07,2.45a.56.56,0,0,1-.82-.13l-.63-1a.55.55,0,0,1-.09-.28l-.15-3.88a.28.28,0,0,1,0-.09l.67-5.16a.56.56,0,0,0-.88-.54l-1.06.75a.56.56,0,0,1-.88-.54l.65-5a.56.56,0,0,0-.69-.62l-2,.51a.57.57,0,0,1-.44-.07L95.87,115a.56.56,0,0,0-.52,0l-1,.42a.55.55,0,0,1-.4,0l-5.6-1.92-.1,0-4.93-.67a.73.73,0,0,1-.19-.07l-6.38-3.47a.57.57,0,0,0-.81.34l-1.13,3.84a.59.59,0,0,0,0,.37l3.24,8.39v0l3.32,10.45a.57.57,0,0,0,.23.3l2,1.31a.55.55,0,0,1,.23.33l.29,1.13a.56.56,0,0,1-.37.67l-1.88.63a.56.56,0,0,0-.32.79l1,1.86a.56.56,0,0,0,.54.3l.67,0a.55.55,0,0,1,.56.76l-.59,1.52a.14.14,0,0,1,0,.06l-2,3.93a.58.58,0,0,0-.06.26v1.38a.56.56,0,0,0,.56.56H87.6a.56.56,0,0,1,.56.56v2a.56.56,0,0,0,.56.56h5.1a.57.57,0,0,1,.5.31L100,162.77a.56.56,0,0,0,.5.3h5.17a.64.64,0,0,0,.2,0l6.89-2.55a.65.65,0,0,1,.2,0h3.5a.51.51,0,0,1,.3.09l2.65,1.67a.55.55,0,0,0,.3.09h2.07a.6.6,0,0,0,.29-.08l3.45-2.08a.44.44,0,0,1,.25-.08l6.9-.52a.62.62,0,0,0,.23-.07l5.88-3.12a.36.36,0,0,1,.2-.06l17.27-1.84h0l13-.38a.45.45,0,0,0,.16,0l3.46-1.16a.56.56,0,0,0,.39-.53v-1a.59.59,0,0,1,.21-.45l.73-.57a.56.56,0,0,0,0-.86l-2.55-2.33A.54.54,0,0,1,171.53,146.73Z"/></svg>
