<svg id="Layer_1" data-name="Layer 1" xmlns="http://www.w3.org/2000/svg" viewBox="0 0 252 252">
    <defs>
        <style>
            .cls-1 {
                fill: none;
                stroke-linecap: round;
                stroke-linejoin: round;
                stroke-width: 2.25px;
            }
        </style>
    </defs>
    <title>Lambda_Stamps_course-city</title>
    <path class="cls-1"
        d="M91.83,103.13l33.64-27.08a.61.61,0,0,1,.86.1l44.89,57.11a.61.61,0,0,1-.1.86l-54.95,43.65a.58.58,0,0,1-.38.13h-.86a.62.62,0,0,1-.61-.7l.43-3.06a.83.83,0,0,1,0-.15l2.26-5.48a.62.62,0,0,0-.25-.76l-.58-.35a.63.63,0,0,1-.3-.51l-.06-3.38a.62.62,0,0,1,.43-.6l.15,0a.62.62,0,0,0,.44-.56l.12-2.9a.61.61,0,0,0-.13-.41l-.54-.69a.65.65,0,0,0-.44-.24h-.26a.63.63,0,0,1-.58-.59l-.12-3a.63.63,0,0,0-.1-.3l-.45-.71,3.51,1.1a.62.62,0,0,0,.7-.25l.83-1.24.67-1.08a.56.56,0,0,0,.09-.35l-.21-6.53a.64.64,0,0,0-.2-.43l-1.46-1.36a.62.62,0,0,1,.23-1l.12,0a.6.6,0,0,0,.42-.61l-.12-2.34a.6.6,0,0,0-.18-.42l-1.33-1.28a.62.62,0,0,0-1,.22h0a.63.63,0,0,1-.76.36l-1-.29a.6.6,0,0,1-.44-.59V135.8a.59.59,0,0,0-.1-.34l-.9-1.35a.62.62,0,0,0-.66-.25h0a.62.62,0,0,1-.71-.36l-1.77-4.14a.8.8,0,0,1,0-.21l-.28-5.91a.6.6,0,0,0-.41-.55l-4.08-1.48a.76.76,0,0,0-.21,0h-1.9a.63.63,0,0,1-.42-.17l-6-5.58a.59.59,0,0,1-.2-.48l.06-1.77a.62.62,0,0,0-.1-.35l-4.1-6.38a.58.58,0,0,1-.09-.44l.14-.86a.62.62,0,0,0-.16-.52l-.56-.6A.62.62,0,0,1,91.83,103.13Z" />
</svg>
