<svg id="Layer_1" data-name="Layer 1" xmlns="http://www.w3.org/2000/svg" viewBox="0 0 252 252">
    <defs>
        <style>
            .cls-1 {
                fill: none;
                stroke-linecap: round;
                stroke-linejoin: round;
                stroke-width: 2.25px;
            }
        </style>
    </defs>
    <title>Lambda_Stamps_course-city</title>
    <path class="cls-1"
        d="M109.33,76.16l20.18,7a1.19,1.19,0,0,1,.75,1.46l-6.62,22.6a1.25,1.25,0,0,0,.14,1L152,152.77a.53.53,0,0,1,.08.15l2.15,4.8a1.17,1.17,0,0,1-.33,1.4l-2.42,2a1.37,1.37,0,0,0-.34.45l-1.84,4.37a1.19,1.19,0,0,0,0,1l1.17,2.61a1.18,1.18,0,0,1-.34,1.42l-2.57,2a1.2,1.2,0,0,1-1,.23l-11.71-2.67a1.19,1.19,0,0,1-.9-.89l-1.16-5a1.13,1.13,0,0,0-.17-.39L125.75,154a1.21,1.21,0,0,0-.21-.24l-7-6.07a1.38,1.38,0,0,0-.33-.2L114.67,146a1.19,1.19,0,0,1-.73-.93l-.45-3a1.3,1.3,0,0,1,0-.52l.77-2.6a1.19,1.19,0,0,0-.07-.87l-5-10.09a1.22,1.22,0,0,1,0-1.1l1.14-2.08a1.14,1.14,0,0,0,.14-.7l-.13-1.26a1.23,1.23,0,0,0-.55-.88l-1.32-.83a1.19,1.19,0,0,1-.56-1v-3.85a1.17,1.17,0,0,1,.28-.76l1.24-1.5a1.16,1.16,0,0,0,.25-1l-.2-1a1.18,1.18,0,0,0-1.29-.93l-.63.06a1.19,1.19,0,0,1-1.31-1.08l-.19-2.15a1.26,1.26,0,0,0-.1-.38l-2.18-5a1.16,1.16,0,0,1,0-.8l1.29-4.64a1.22,1.22,0,0,0,0-.57l-1.32-6.31a1.21,1.21,0,0,1,.22-1l1.59-2.08a1,1,0,0,0,.18-.34L107,83.28a.86.86,0,0,0,.06-.23l.73-5.92A1.19,1.19,0,0,1,109.33,76.16Z" />
</svg>
