<svg id="Layer_1" data-name="Layer 1" xmlns="http://www.w3.org/2000/svg" xmlns:xlink="http://www.w3.org/1999/xlink"
    viewBox="0 0 252 252">
    <defs>
        <style>
            .cls-1,
            .cls-3,
            .cls-4 {
                fill: none;
            }

            .cls-2 {
                clip-path: url(#clip-path);
            }

            .cls-3,
            .cls-4 {
                stroke-linecap: round;
                stroke-linejoin: round;
            }

            .cls-3 {
                stroke-width: 2.25px;
            }

            .cls-4 {
                stroke-width: 2.32px;
            }
        </style>
        <clipPath id="clip-path">
            <circle class="cls-1" cx="125.72" cy="126.47" r="58.05" />
        </clipPath>
    </defs>
    <title>Lambda_Stamps_course-city</title>
    <g class="cls-2">
        <path class="cls-3"
            d="M115,140.61h21a5.73,5.73,0,0,0,3-.82c4.33-2.66,16.67-12-13.54-28.66,0,0-32.55,16.27-13.64,28.53A5.87,5.87,0,0,0,115,140.61Z" />
        <line class="cls-3" x1="125.45" y1="111.13" x2="125.45" y2="105.55" />
        <line class="cls-3" x1="80.49" y1="111.13" x2="80.49" y2="105.55" />
        <line class="cls-3" x1="170.95" y1="111.13" x2="170.95" y2="105.55" />
        <line class="cls-3" x1="99.78" y1="133.55" x2="99.78" y2="129.33" />
        <line class="cls-3" x1="151.56" y1="133.55" x2="151.56" y2="129.33" />
        <line class="cls-3" x1="112.62" y1="119.79" x2="138.34" y2="119.79" />
        <line class="cls-3" x1="72.06" y1="119.79" x2="88.93" y2="119.79" />
        <line class="cls-3" x1="162.52" y1="119.79" x2="179.39" y2="119.79" />
        <line class="cls-3" x1="86.94" y1="133.55" x2="74.05" y2="133.55" />
        <line class="cls-3" x1="164.51" y1="133.55" x2="177.4" y2="133.55" />
        <rect class="cls-3" x="112.7" y="140.61" width="25.68" height="5.54" />
        <path class="cls-3"
            d="M95.63,146.59h8.27a2,2,0,0,0,1.18-.37c1.71-1.17,6.57-5.3-5.34-12.67,0,0-12.83,7.2-5.37,12.62A2.14,2.14,0,0,0,95.63,146.59Z" />
        <polyline class="cls-3" points="104.84 152.75 104.84 146.59 94.72 146.59 94.72 152.75" />
        <path class="cls-3"
            d="M147.41,146.59h8.27a2,2,0,0,0,1.18-.37c1.71-1.17,6.57-5.3-5.34-12.67,0,0-12.83,7.2-5.37,12.62A2.14,2.14,0,0,0,147.41,146.59Z" />
        <polyline class="cls-3" points="156.62 152.67 156.62 146.59 146.5 146.59 146.5 152.67" />
        <rect class="cls-4" x="112.7" y="146.47" width="25.68" height="39.54" />
        <rect class="cls-3" x="86.94" y="153.05" width="25.68" height="30.71" />
        <rect class="cls-3" x="138.38" y="153.05" width="25.68" height="30.71" />
        <path class="cls-3"
            d="M134.16,183.76V161.93a8.14,8.14,0,0,0-5.6-7.24s-2.52-1.16-3-2.72c-.51,1.56-3,2.72-3,2.72a8.14,8.14,0,0,0-5.6,7.24v21.83" />
        <path class="cls-3"
            d="M125.54,164.81h0a3.5,3.5,0,0,1,3.5,3.5v15.45a0,0,0,0,1,0,0h-7a0,0,0,0,1,0,0V168.32A3.5,3.5,0,0,1,125.54,164.81Z" />
        <path class="cls-3"
            d="M80.5,111.83h0a6.44,6.44,0,0,1,6.44,6.44v65.49a0,0,0,0,1,0,0H74.05a0,0,0,0,1,0,0V118.27A6.44,6.44,0,0,1,80.5,111.83Z" />
        <path class="cls-3"
            d="M171,111.83h0a6.44,6.44,0,0,1,6.44,6.44v65.49a0,0,0,0,1,0,0H164.51a0,0,0,0,1,0,0V118.27A6.44,6.44,0,0,1,171,111.83Z" />
        <path class="cls-3"
            d="M97.22,167.07v-3.82s.13-2.34-1-3.37a4.14,4.14,0,0,1-1.61-2.66h-.17a4.14,4.14,0,0,1-1.61,2.66c-1.11,1-1,3.37-1,3.37v3.82Z" />
        <path class="cls-3"
            d="M107.63,167.07v-3.82s.13-2.34-1-3.37a4.18,4.18,0,0,1-1.61-2.66h-.16a4.18,4.18,0,0,1-1.61,2.66c-1.11,1-1,3.37-1,3.37v3.82Z" />
        <path class="cls-3"
            d="M97.22,180v-3.82s.13-2.35-1-3.38a4.12,4.12,0,0,1-1.61-2.66h-.17a4.12,4.12,0,0,1-1.61,2.66c-1.11,1-1,3.38-1,3.38V180Z" />
        <path class="cls-3"
            d="M107.63,180v-3.82s.13-2.35-1-3.38a4.16,4.16,0,0,1-1.61-2.66h-.16a4.16,4.16,0,0,1-1.61,2.66c-1.11,1-1,3.38-1,3.38V180Z" />
        <path class="cls-3"
            d="M148.69,167.07v-3.82s.13-2.34-1-3.37a4.14,4.14,0,0,1-1.61-2.66h-.17a4.14,4.14,0,0,1-1.61,2.66c-1.11,1-1,3.37-1,3.37v3.82Z" />
        <path class="cls-3"
            d="M159.1,167.07v-3.82s.13-2.34-1-3.37a4.18,4.18,0,0,1-1.61-2.66h-.16a4.18,4.18,0,0,1-1.61,2.66c-1.11,1-1,3.37-1,3.37v3.82Z" />
        <path class="cls-3"
            d="M148.69,180v-3.82s.13-2.35-1-3.38a4.12,4.12,0,0,1-1.61-2.66h-.17a4.12,4.12,0,0,1-1.61,2.66c-1.11,1-1,3.38-1,3.38V180Z" />
        <path class="cls-3"
            d="M159.1,180v-3.82s.13-2.35-1-3.38a4.16,4.16,0,0,1-1.61-2.66h-.16a4.16,4.16,0,0,1-1.61,2.66c-1.11,1-1,3.38-1,3.38V180Z" />
    </g>
</svg>
