<svg id="Layer_1" data-name="Layer 1" xmlns="http://www.w3.org/2000/svg" viewBox="0 0 252 252">
    <defs>
        <style>
            .cls-1 {
                fill: none;
                stroke-linecap: round;
                stroke-linejoin: round;
                stroke-width: 2.25px;
            }
        </style>
    </defs>
    <title>Lambda_Stamps_course-city</title>
    <path class="cls-1"
        d="M104.47,80.26l35.43-2.63a1.19,1.19,0,0,1,1.27,1.18v4.73a1.18,1.18,0,0,0,.27.76L144.53,88a1.2,1.2,0,0,1,.28.64L149.2,132a1.06,1.06,0,0,1,0,.31L148,139.51a1.25,1.25,0,0,0,.13.76l2.15,3.94a1.17,1.17,0,0,1,.12.78l-.71,3.75a1.31,1.31,0,0,1-.23.51l-4.24,5.39a1.19,1.19,0,0,0-.25.73v8.14a1.12,1.12,0,0,1-.19.64l-1.66,2.59-.12.16-3.94,4.32a1.16,1.16,0,0,0-.27,1.11l.54,1.9a1.18,1.18,0,0,1-1.4,1.47l-3.78-.89a1.16,1.16,0,0,0-1.08.3l-3.32,3.17a1.18,1.18,0,0,1-1.7-.07l-2.4-2.69a1.13,1.13,0,0,1-.28-1l.26-1.44a1.16,1.16,0,0,0-.06-.64l-2.82-7.32a1.19,1.19,0,0,0-.91-.74l-3-.47a1.16,1.16,0,0,1-.65-.33L112.59,158a1.15,1.15,0,0,1-.32-1.08l2-9a1.18,1.18,0,0,0-.88-1.4L108,145.18a1.21,1.21,0,0,1-.89-.94l-.45-2.55a1.12,1.12,0,0,0-.21-.5L95.3,126.31a1.2,1.2,0,0,1-.2-1l1.32-5.4a1,1,0,0,1,.11-.29L99,115.17l0-.09,2.74-4.11a1.19,1.19,0,0,0,.2-.66v-2.75a1.18,1.18,0,0,0-.34-.84L99.9,105a1.18,1.18,0,0,1-.31-1.13l.52-2a1.19,1.19,0,0,1,.71-.79L106.36,99a1.24,1.24,0,0,0,.67-.66l3.18-8a1.2,1.2,0,0,0-.12-1.1l-3.39-5a1.27,1.27,0,0,0-.79-.5l-1.31-.21a1.22,1.22,0,0,1-.94-.84l-.24-.86A1.17,1.17,0,0,1,104.47,80.26Z" />
</svg>
