<svg id="Layer_1" data-name="Layer 1" xmlns="http://www.w3.org/2000/svg" xmlns:xlink="http://www.w3.org/1999/xlink"
    viewBox="0 0 252 252">
    <defs>
        <style>
            .cls-1,
            .cls-3,
            .cls-5,
            .cls-6,
            .cls-7 {
                fill: none;
            }

            .cls-2 {
                clip-path: url(#clip-path);
            }

            .cls-3,
            .cls-5,
            .cls-6,
            .cls-7 {
                stroke-linecap: round;
                stroke-linejoin: round;
            }

            .cls-3 {
                stroke-width: 2.25px;
            }

            .cls-4 {
                stroke: none;
            }

            .cls-5 {
                stroke-width: 1.5px;
            }

            .cls-6 {
                stroke-width: 1.13px;
            }

            .cls-7 {
                stroke-width: 1.95px;
            }
        </style>
        <clipPath id="clip-path">
            <circle class="cls-1" cx="126" cy="126.39" r="58.05" />
        </clipPath>
    </defs>
    <title>Lambda_Stamps_course-city</title>
    <g class="cls-2">
        <path class="cls-3" d="M100.7,156.46c0-15.58,11.54-28.22,25.78-28.22s25.77,12.64,25.77,28.22" />
        <path class="cls-3" d="M85.46,156.56a5.22,5.22,0,1,1,10.39,0" />
        <path class="cls-3" d="M156.4,156.56a5.22,5.22,0,1,1,10.39,0" />
        <polyline class="cls-3" points="99.88 161.12 99.88 156.46 153.07 156.46 153.07 159.69" />
        <rect class="cls-3" x="85.64" y="163.93" width="80.84" height="33.67" />
        <polygon class="cls-3" points="85.64 197.6 73.22 197.6 85.28 163.55 85.64 163.55 85.64 197.6" />
        <polygon class="cls-3" points="166.48 197.63 178.78 197.63 166.84 163.91 166.48 163.91 166.48 197.63" />
        <line class="cls-3" x1="90.65" y1="150.87" x2="90.65" y2="145.94" />
        <line class="cls-3" x1="161.59" y1="150.87" x2="161.59" y2="145.94" />
        <circle class="cls-4" cx="90.65" cy="147.86" r="0.96" />
        <circle class="cls-4" cx="161.59" cy="147.86" r="0.96" />
        <rect class="cls-5" x="121.77" y="124.65" width="9.41" height="3.6" />
        <path class="cls-5" d="M122.92,124.65s2.91-1.09,3.29-3.75h.51s.7,3.07,3.31,3.75" />
        <line class="cls-5" x1="126.48" y1="120.9" x2="126.48" y2="111.69" />
        <circle class="cls-4" cx="126.48" cy="119.79" r="1.69" />
        <circle class="cls-4" cx="126.48" cy="115.03" r="1.26" />
        <circle class="cls-6" cx="126.48" cy="106.81" r="4.37" />
        <circle class="cls-6" cx="126.48" cy="105.95" r="3.5" />
        <path class="cls-3" d="M97.89,160l-2.13,3.68h5.59L99.22,160A.77.77,0,0,0,97.89,160Z" />
        <path class="cls-7" d="M104.78,160l-2.12,3.68h5.58L106.12,160A.78.78,0,0,0,104.78,160Z" />
        <path class="cls-7" d="M111.67,160l-2.12,3.68h5.58L113,160A.78.78,0,0,0,111.67,160Z" />
        <path class="cls-7" d="M118.56,160l-2.12,3.68H122L119.9,160A.78.78,0,0,0,118.56,160Z" />
        <path class="cls-7" d="M125.45,160l-2.12,3.68h5.58L126.79,160A.78.78,0,0,0,125.45,160Z" />
        <path class="cls-7" d="M132.34,160l-2.12,3.68h5.58L133.68,160A.78.78,0,0,0,132.34,160Z" />
        <path class="cls-7" d="M139.23,160l-2.12,3.68h5.58L140.57,160A.78.78,0,0,0,139.23,160Z" />
        <path class="cls-7" d="M146.13,160,144,163.72h5.59L147.46,160A.77.77,0,0,0,146.13,160Z" />
        <path class="cls-7" d="M153,160l-2.13,3.68h5.59L154.35,160A.77.77,0,0,0,153,160Z" />
        <rect class="cls-3" x="85.54" y="156.46" width="10.23" height="7.26" />
        <rect class="cls-3" x="156.48" y="156.46" width="10.23" height="7.26" />
        <rect class="cls-3" x="92.22" y="163.93" width="4.94" height="33.67" />
        <rect class="cls-3" x="105.46" y="163.93" width="4.94" height="33.67" />
        <rect class="cls-3" x="142.55" y="163.93" width="4.94" height="33.67" />
        <rect class="cls-3" x="155.79" y="163.93" width="4.94" height="33.67" />
        <line class="cls-5" x1="97.37" y1="92.51" x2="97.37" y2="82.45" />
        <circle class="cls-4" cx="97.37" cy="82.45" r="1.62" />
        <polyline class="cls-3" points="93.5 151.7 93.5 133.08 101.24 133.08 101.24 150.53" />
        <rect class="cls-3" x="93.5" y="112.68" width="7.73" height="13.2" />
        <path class="cls-3" d="M104.84,112.68s-7.38-11.52-7.38-23.05h-.18c0,11.53-7.37,23.05-7.37,23.05Z" />
        <path class="cls-3"
            d="M103.33,133.08H91.41a1.12,1.12,0,0,1-1.15-.66L89,126.77c-.1-.47.44-.89,1.15-.89H104.6c.7,0,1.24.42,1.14.89l-1.26,5.65A1.11,1.11,0,0,1,103.33,133.08Z" />
        <line class="cls-5" x1="154.59" y1="92.51" x2="154.59" y2="82.45" />
        <circle class="cls-4" cx="154.59" cy="82.18" r="1.62" />
        <polyline class="cls-3" points="150.72 146.87 150.72 133.08 158.46 133.08 158.46 151.84" />
        <rect class="cls-3" x="150.72" y="112.68" width="7.73" height="13.2" />
        <path class="cls-3" d="M162.05,112.68s-7.37-11.52-7.37-23.05h-.18c0,11.53-7.38,23.05-7.38,23.05Z" />
        <path class="cls-3"
            d="M160.55,133.08H148.63a1.11,1.11,0,0,1-1.15-.66l-1.26-5.65c-.11-.47.44-.89,1.14-.89h14.45c.71,0,1.25.42,1.15.89l-1.26,5.65A1.12,1.12,0,0,1,160.55,133.08Z" />
    </g>
</svg>
