<svg id="Layer_1" data-name="Layer 1" xmlns="http://www.w3.org/2000/svg" viewBox="0 0 252 252">
    <defs>
        <style>
            .cls-1,
            .cls-2,
            .cls-3 {
                fill: none;
            }

            .cls-1,
            .cls-2 {
                stroke-miterlimit: 10;
            }

            .cls-1 {
                stroke-width: 2.25px;
            }

            .cls-2,
            .cls-3 {
                stroke-width: 1.95px;
            }

            .cls-3 {
                stroke-linecap: round;
                stroke-linejoin: round;
            }

            .cls-4 {
                stroke: none;
            }
        </style>
    </defs>
    <title>Lambda_Stamps_course-city</title>
    <line class="cls-1" x1="79.94" y1="90.55" x2="172.06" y2="90.55" />
    <line class="cls-1" x1="79.94" y1="161.45" x2="172.06" y2="161.45" />
    <circle class="cls-2" cx="125.6" cy="126.47" r="28.12" />
    <polygon class="cls-3"
        points="147.18 144.5 134.66 137.22 139.71 150.79 130.44 139.67 130.54 154.15 125.63 140.53 120.77 154.17 120.82 139.69 111.59 150.85 116.58 137.26 104.1 144.59 113.44 133.52 99.2 136.14 111.76 128.94 97.48 126.53 111.75 124.06 99.16 116.9 113.41 119.46 104.02 108.44 116.54 115.72 111.49 102.14 120.77 113.27 120.66 98.79 125.57 112.41 130.43 98.77 130.38 113.25 139.61 102.09 134.62 115.68 147.1 108.35 137.76 119.42 152 116.8 139.44 124 153.72 126.41 139.45 128.88 152.04 136.03 137.79 133.47 147.18 144.5" />
    <circle class="cls-4" cx="126" cy="126" r="4.81" />
</svg>
