<svg id="Layer_1" data-name="Layer 1" xmlns="http://www.w3.org/2000/svg" xmlns:xlink="http://www.w3.org/1999/xlink" viewBox="0 0 252 252"><defs><style>.cls-1,.cls-3{fill:none;}.cls-2{clip-path:url(#clip-path);}.cls-3{stroke-linecap:round;stroke-linejoin:round;stroke-width:2.25px;}</style><clipPath id="clip-path"><circle class="cls-1" cx="126" cy="126.39" r="58.05"/></clipPath></defs><title>Lambda_Stamps_course-city</title><g class="cls-2"><path class="cls-3" d="M50.09,89.44a5.38,5.38,0,0,0,2.69,4.67l26.33,15.2,25.18,14.54a2.56,2.56,0,0,1,0,4.44L79.11,142.83,52.78,158a5.4,5.4,0,0,0-2.69,4.67v13.19a5.39,5.39,0,0,0,8,4.7L134,137.86a5.45,5.45,0,0,1,2.64-.69h79.57a5.39,5.39,0,0,0,5.39-5.39V118.91a5.39,5.39,0,0,0-5.39-5.4h-79a5.49,5.49,0,0,1-2.54-.63L58,71.9a5.39,5.39,0,0,0-7.93,4.76Z"/><path class="cls-3" d="M54.58,86.27a5.38,5.38,0,0,0,2.64,4.64l40.25,23.93,12.15,6.59a5.4,5.4,0,0,1,0,9.49l-12.15,6.59L57.22,161.4A5.41,5.41,0,0,0,54.58,166v2.51a5.4,5.4,0,0,0,8,4.71l71.62-40.13a5.45,5.45,0,0,1,2.64-.69h75.69a5.39,5.39,0,0,0,5.4-5.39v-2.74a5.39,5.39,0,0,0-5.4-5.39H137.23a5.48,5.48,0,0,1-2.57-.65l-72.12-39a5.4,5.4,0,0,0-8,4.75Z"/></g></svg>
