<svg id="Layer_1" data-name="Layer 1" xmlns="http://www.w3.org/2000/svg" xmlns:xlink="http://www.w3.org/1999/xlink"
    viewBox="0 0 252 252">
    <defs>
        <style>
            .cls-1,
            .cls-3,
            .cls-4 {
                fill: none;
            }

            .cls-2 {
                clip-path: url(#clip-path);
            }

            .cls-3,
            .cls-4 {
                stroke-linecap: round;
                stroke-linejoin: round;
            }

            .cls-3 {
                stroke-width: 2.25px;
            }

            .cls-4 {
                stroke-width: 1.95px;
            }
        </style>
        <clipPath id="clip-path">
            <circle class="cls-1" cx="126.28" cy="126.39" r="58.05" />
        </clipPath>
    </defs>
    <title>Lambda_Stamps_course-city</title>
    <g class="cls-2">
        <polyline class="cls-3" points="109.63 105.86 57.27 105.86 57.27 98.16 104.31 98.16" />
        <polyline class="cls-3" points="148.24 98.16 195.29 98.16 195.29 105.86 143.13 105.86" />
        <polyline class="cls-3" points="143.56 150.13 180.29 150.13 180.29 157.82 145.35 157.82" />
        <polyline class="cls-3" points="107.54 157.82 72.27 157.82 72.27 150.13 108.78 150.13" />
        <ellipse class="cls-3" cx="126.18" cy="129.49" rx="19.85" ry="42.14" />
        <path class="cls-4"
            d="M123.55,93.48h0a0,0,0,0,1,0,0V121.2a0,0,0,0,1,0,0h0a3.16,3.16,0,0,1-3.16-3.16V96.64A3.16,3.16,0,0,1,123.55,93.48Z" />
        <path class="cls-4"
            d="M131.37,93.48h0a0,0,0,0,1,0,0V121.2a0,0,0,0,1,0,0h0a3.16,3.16,0,0,1-3.16-3.16V96.64A3.16,3.16,0,0,1,131.37,93.48Z"
            transform="translate(259.58 214.69) rotate(180)" />
        <path class="cls-4"
            d="M123.55,137.55h0a0,0,0,0,1,0,0v27.72a0,0,0,0,1,0,0h0a3.16,3.16,0,0,1-3.16-3.16v-21.4a3.16,3.16,0,0,1,3.16-3.16Z" />
        <path class="cls-4"
            d="M131.37,137.55h0a0,0,0,0,1,0,0v27.72a0,0,0,0,1,0,0h0a3.16,3.16,0,0,1-3.16-3.16v-21.4a3.16,3.16,0,0,1,3.16-3.16Z"
            transform="translate(259.58 302.82) rotate(180)" />
        <path class="cls-3" d="M108.52,110.27s13.07,17.88,0,37.76" />
        <path class="cls-3" d="M143.69,148s-13.07-17.88,0-37.76" />
        <path class="cls-3"
            d="M140,99.18a69.81,69.81,0,0,1,3.25-6.34c4.52-7.82,9.54-13.37,11.23-12.4s-.62,8.1-5.13,15.92a57.67,57.67,0,0,1-6.68,9.49" />
        <path class="cls-3"
            d="M112.49,99a68.09,68.09,0,0,0-3.16-6.13c-4.52-7.82-9.54-13.37-11.22-12.4s.61,8.1,5.13,15.92a57.82,57.82,0,0,0,6.55,9.36" />
        <polyline class="cls-3" points="142.49 153.51 152.91 170.15 149.23 172.45 140.59 158.65" />
        <polyline class="cls-3" points="109.91 154.03 99.82 170.15 103.5 172.45 111.9 159.02" />
        <ellipse class="cls-3" cx="126.18" cy="129.49" rx="3.61" ry="5.06" />
    </g>
</svg>
