<svg id="Layer_1" data-name="Layer 1" xmlns="http://www.w3.org/2000/svg" xmlns:xlink="http://www.w3.org/1999/xlink" viewBox="0 0 252 252"><defs><style>.cls-1,.cls-3{fill:none;}.cls-2{clip-path:url(#clip-path);}.cls-3{stroke-linecap:round;stroke-linejoin:round;stroke-width:2.25px;}</style><clipPath id="clip-path"><circle class="cls-1" cx="126" cy="126" r="58.05"/></clipPath></defs><title>Lambda_Stamps_course-city</title><g class="cls-2"><path class="cls-3" d="M52.41,166.81l7.48-7.48a1.76,1.76,0,0,0,.32-.45l8.38-17.6a1.62,1.62,0,0,1,.53-.63l7.64-5.47a1.66,1.66,0,0,1,2.36.46l7.07,11.2a1.65,1.65,0,0,0,1.89.69h0a1.65,1.65,0,0,1,1.9.71l3.11,5a1.64,1.64,0,0,0,1.4.78h2.77a1.64,1.64,0,0,1,1.27.6l10.09,12.28c.88,1.07,3,2.7,1.1,2.7H53.58A1.65,1.65,0,0,1,52.41,166.81Z"/><path class="cls-3" d="M84.89,142.8l9.9-13.26a1.69,1.69,0,0,0,.28-.59L96.3,124a1.58,1.58,0,0,1,.45-.78l8-7.78a1.66,1.66,0,0,1,1.91-.29l6.39,3.27a1.69,1.69,0,0,1,.72.73l4.72,9.36a1.64,1.64,0,0,0,1,.83l5.6,1.73a1.6,1.6,0,0,1,1,.78l5.66,10.21a1.64,1.64,0,0,0,1,.78l2.11.66a1.7,1.7,0,0,1,.83.59l5.54,7.46a1.76,1.76,0,0,0,.57.48l12.37,6.4a1.61,1.61,0,0,1,.73.75l4.37,9.19a1.66,1.66,0,0,1-1.69,2.35L148,169.63l-12.17-1.34a2.06,2.06,0,0,0-.43,0L127,169.61l-.26,0H111.61a1.65,1.65,0,0,1-1.27-.61L98.53,154.65a1.64,1.64,0,0,0-1.27-.6H94.49a1.64,1.64,0,0,1-1.4-.78l-3.11-5a1.65,1.65,0,0,0-1.9-.71h0a1.65,1.65,0,0,1-1.89-.69l-1.37-2.18A1.63,1.63,0,0,1,84.89,142.8Z"/><path class="cls-3" d="M126.6,130.42l1.63-1.52a1.69,1.69,0,0,1,1.13-.44H132a1.68,1.68,0,0,0,1.31-.64L144,114.05a1.81,1.81,0,0,1,.41-.37l2.75-1.79a1.66,1.66,0,0,1,2,.17l4,3.65a1.31,1.31,0,0,1,.3.36l7,11.53a.86.86,0,0,1,.07.1l8.76,12.43a1.64,1.64,0,0,1,.16,1.63l-.8,1.77a1.67,1.67,0,0,1-1.5,1h-1.69a1.64,1.64,0,0,0-1.39.75l-3.09,4.79a1.63,1.63,0,0,1-1.38.75h-1.73a1.66,1.66,0,0,0-1.32.66l-3.62,4.84a1.65,1.65,0,0,1-2.08.48l-9.11-4.71a1.76,1.76,0,0,1-.57-.48l-5.54-7.46a1.7,1.7,0,0,0-.83-.59l-2.11-.66a1.64,1.64,0,0,1-1-.78l-5.35-9.67A1.66,1.66,0,0,1,126.6,130.42Z"/><path class="cls-3" d="M153.16,155.87l3.29-4.41a1.66,1.66,0,0,1,1.32-.66h1.73a1.63,1.63,0,0,0,1.38-.75l3.09-4.79a1.64,1.64,0,0,1,1.39-.75h1.69a1.67,1.67,0,0,0,1.5-1l1.13-2.5a2,2,0,0,1,.14-.25l5.37-7.84a1.65,1.65,0,0,1,2.15-.52l7,3.81a1.66,1.66,0,0,1,.81,1.06l2,8.1a1.74,1.74,0,0,0,.3.61l7.86,10.22.1.12,6.83,7.27a1.66,1.66,0,0,1-1.14,2.78l-15.69.66H169.69l-10.59-.65a1.67,1.67,0,0,1-1.39-.94l-3-6.24a1.61,1.61,0,0,0-.73-.75l-.29-.15A1.65,1.65,0,0,1,153.16,155.87Z"/><path class="cls-3" d="M65.4,148h9a1.66,1.66,0,0,1,1.18.49l3,3a1.65,1.65,0,0,1-.53,2.67l-6.12,2.61a1.65,1.65,0,0,0-.89,2.11l1.47,3.8a1.63,1.63,0,0,1-.25,1.63l-1.94,2.39a1.59,1.59,0,0,1-.64.48l-5.71,2.42"/><path class="cls-3" d="M105.15,134.31l9,10.82a1.63,1.63,0,0,0,1.27.59h2.68a1.64,1.64,0,0,1,1.47.91l2.54,5a1.41,1.41,0,0,0,.38.49l4.34,3.78,5.47,4.49a1.44,1.44,0,0,1,.36.42l4.69,7.67"/><path class="cls-3" d="M148.82,131.71l-4.17,2.19a1.65,1.65,0,0,0-.74.78L141,141.21a1.64,1.64,0,0,1-1,.88l-4.8,1.61"/></g></svg>
