<svg id="Layer_1" data-name="Layer 1" xmlns="http://www.w3.org/2000/svg" viewBox="0 0 252 252">
    <defs>
        <style>
            .cls-1 {
                fill: none;
                stroke-linecap: round;
                stroke-linejoin: round;
                stroke-width: 2.25px;
            }
        </style>
    </defs>
    <title>Lambda_Stamps_course-city</title>
    <path class="cls-1"
        d="M150.69,151.09l1.94-3.39a1.85,1.85,0,0,0,.25-.95V133.46a1.82,1.82,0,0,1,.12-.65l1.76-4.88a2.06,2.06,0,0,0,.11-.65V110.51a1.91,1.91,0,0,0-1.91-1.9h-.11a1.91,1.91,0,0,1-1.87-2.29l1.7-8.4,0-.11,1-3.89a1.88,1.88,0,0,0-.18-1.43l-1.3-2.3A2,2,0,0,1,152,89l.37-2.74a1.9,1.9,0,0,0-1.89-2.17H135a1.89,1.89,0,0,0-1.41.63l-9.25,10.21a1.9,1.9,0,0,1-1.22.62l-1.73.17a1.86,1.86,0,0,0-1.07.47l-3,2.63a1.93,1.93,0,0,0-.64,1.24l-.77,7.75a1.93,1.93,0,0,1-.69,1.3l-4.89,4a1.87,1.87,0,0,1-1.13.42l-7.67.29-16,.13a1.91,1.91,0,0,0-1.89,1.91v2a1.88,1.88,0,0,0,.17.77l.8,1.81a1.9,1.9,0,0,1-.48,2.2L73.7,131.81a1.94,1.94,0,0,0-.65,1.44v0A1.9,1.9,0,0,0,75,135.19h51.85a1.92,1.92,0,0,1,1.4.62L132,140a1.92,1.92,0,0,1,.48,1l.27,2.12a1.86,1.86,0,0,0,1,1.41l13,7.37a1.92,1.92,0,0,1,.57,2.82l-3.36,4.41a1,1,0,0,0-.2.7h0a1.91,1.91,0,0,0,2.57,1.58l27.33-10.36a1,1,0,0,0,.54-1.32h0a1,1,0,0,0-1.13-.55l-2.25.57a1.92,1.92,0,0,1-1.25-.12l-1.42-.64a1.91,1.91,0,0,0-1.95.23L163.84,151a1.88,1.88,0,0,1-1.16.4H156.6a2,2,0,0,0-.68.12L152,153a1,1,0,0,1-1.31-.75l-.09-.54A1,1,0,0,1,150.69,151.09Z" />
</svg>
