<svg id="Layer_1" data-name="Layer 1" xmlns="http://www.w3.org/2000/svg" xmlns:xlink="http://www.w3.org/1999/xlink"
    viewBox="0 0 252 252">
    <defs>
        <style>
            .cls-1,
            .cls-4 {
                fill: none;
            }

            .cls-2 {
                clip-path: url(#clip-path);
            }

            .cls-3 {
                clip-path: url(#clip-path-2);
            }

            .cls-4 {
                stroke-miterlimit: 10;
                stroke-width: 2.25px;
            }

            .cls-5 {
                stroke: none;
                fill-rule: evenodd;
            }
        </style>
        <clipPath id="clip-path">
            <circle class="cls-1" cx="-522.28" cy="125.86" r="58.33" />
        </clipPath>
        <clipPath id="clip-path-2">
            <circle class="cls-1" cx="126" cy="126.39" r="58.33" />
        </clipPath>
    </defs>
    <title>Lambda_Stamps_course-city</title>
    <g class="cls-3">
        <ellipse class="cls-4" cx="125.04" cy="125.82" rx="30.33" ry="50.44"
            transform="translate(-52.34 125.27) rotate(-45)" />
        <path class="cls-4" d="M85.41,155.65c-5.8-13.17,1.29-34.38,18.18-51.28,18-18,40.89-24.86,53.74-16.88" />
        <path class="cls-4" d="M165.6,98.55c3.94,13.24-3.27,32.88-19.11,48.72-16.9,16.89-38.11,24-51.28,18.18" />
        <path class="cls-4" d="M169.72,92.12a7.06,7.06,0,1,1-7.06-7.06A7.08,7.08,0,0,1,169.72,92.12Z" />
        <circle class="cls-4" cx="89.34" cy="161.51" r="7.06" />
    </g>
    <path class="cls-5"
        d="M134,139.87l-.64-1.73-8.68-22.85c-.53,1.34-1.73,4.57-3,8l-5,13.48a1.21,1.21,0,0,0,.06,1.21c.36.42,1.15.42,2.39.42h.23v1.44H110v-1.44h.72a3.27,3.27,0,0,0,3.1-2.12l.94-2.15L123.37,112,121.84,108h8.06L141,137.23l1,2.64Z" />
</svg>
