<svg id="Layer_1" data-name="Layer 1" xmlns="http://www.w3.org/2000/svg" xmlns:xlink="http://www.w3.org/1999/xlink"
    viewBox="0 0 252 252">
    <defs>
        <style>
            .cls-1,
            .cls-4 {
                fill: none;
            }

            .cls-2 {
                clip-path: url(#clip-path);
            }

            .cls-3 {
                clip-path: url(#clip-path-2);
            }

            .cls-4 {
                stroke-miterlimit: 10;
                stroke-width: 2.25px;
            }

            .cls-5 {
                stroke: none;
                fill-rule: evenodd;
            }
        </style>
        <clipPath id="clip-path">
            <circle class="cls-1" cx="-198.28" cy="125.86" r="58.33" />
        </clipPath>
        <clipPath id="clip-path-2">
            <circle class="cls-1" cx="126.42" cy="126.39" r="58.33" />
        </clipPath>
    </defs>
    <title>Lambda_Stamps_course-city</title>
    <g class="cls-3">
        <ellipse class="cls-4" cx="126.15" cy="126.25" rx="28.43" ry="71.98" />
        <ellipse class="cls-4" cx="126.15" cy="126.25" rx="71.98" ry="28.43" />
        <ellipse class="cls-4" cx="126.15" cy="126.25" rx="71.98" ry="28.43"
            transform="translate(-52.27 130.48) rotate(-46.38)" />
        <ellipse class="cls-4" cx="126.15" cy="126.25" rx="28.43" ry="71.98"
            transform="translate(-52.27 121.87) rotate(-43.62)" />
    </g>
    <path class="cls-5"
        d="M133.69,139.87l-.64-1.73-8.68-22.85c-.53,1.34-1.73,4.57-3,8l-5,13.48a1.21,1.21,0,0,0,.06,1.21c.36.42,1.15.42,2.39.42H119v1.44h-9.33v-1.44h.72a3.26,3.26,0,0,0,3.1-2.12l.94-2.15L123.09,112,121.56,108h8.06l11.13,29.28,1,2.64Z" />
</svg>
