<svg id="Layer_1" data-name="Layer 1" xmlns="http://www.w3.org/2000/svg" xmlns:xlink="http://www.w3.org/1999/xlink"
    viewBox="0 0 252 252">
    <defs>
        <style>
            .cls-1,
            .cls-5 {
                fill: none;
            }

            .cls-2 {
                clip-path: url(#clip-path);
            }

            .cls-3,
            .cls-6 {
                fill-rule: evenodd;
            }

            .cls-4 {
                clip-path: url(#clip-path-2);
            }

            .cls-5 {
                stroke-miterlimit: 10;
                stroke-width: 2.75px;
            }

            .cls-6 {
                stroke: none;
            }
        </style>
        <clipPath id="clip-path">
            <circle class="cls-1" cx="-1494.28" cy="125.86" r="58.33" />
        </clipPath>
        <clipPath id="clip-path-2">
            <circle class="cls-1" cx="126" cy="125.86" r="58.33" />
        </clipPath>
    </defs>
    <title>Lambda_Stamps_course-city</title>
    <g class="cls-2">
        <path class="cls-3"
            d="M251.1,252.38l-1.8-4.76-19.46-51.34H216.3l1.51,3.94L201.6,241.69l-.21.47c-.14.29-.28.61-.4.92-.33.85-.72,1.69-1.07,2.44a1.19,1.19,0,0,1-.08.16c-1.45,2.91-3.45,4.42-5.81,4.42h-1.39v2.24H210V250.1h-.42c-2.36,0-3.82-.42-4.48-1.21a2.2,2.2,0,0,1-.12-2.24c.06-.24.18-.6.36-1.09l.19-.54c.14-.43.31-.91.48-1.45.11-.26.55-1.43,1.21-3.2.74-2,1.78-4.77,3-7.88l.06-.12c1.23-3.24,2.59-6.87,3.91-10.39,2.53-6.75,4.93-13.11,6-15.7l16.22,42.78,1.25,3.32Z" />
    </g>
    <g class="cls-4">
        <circle class="cls-5" cx="94.69" cy="87.55" r="5.11" />
        <circle class="cls-5" cx="120.72" cy="83.68" r="5.11" />
        <path class="cls-5"
            d="M125.54,84.32s15.57-1.43,17,11.26-5.75,53.58-25.16,56.47h0C98.24,154.9,79.24,117.91,77,105.33S90,89.6,90,89.6" />
        <path class="cls-5"
            d="M117.43,152.05l2.35,15.85s1.4,15.35,16.85,13.06c0,0,15.44-1.58,13-17.82l-2.86-19.23s-2.8-11.82,9.94-13.71S170.87,140,170.87,140l1.92,12.91" />
        <circle class="cls-5" cx="174.22" cy="162.55" r="9.75" />
        <circle class="cls-5" cx="174.22" cy="162.55" r="4.4" />
    </g>
    <path class="cls-6"
        d="M118.41,126.53l-.61-1.63-8.16-21.49c-.49,1.26-1.63,4.3-2.85,7.55l-4.7,12.68a1.13,1.13,0,0,0,.06,1.14c.34.39,1.08.39,2.24.39h.22v1.35H95.83v-1.35h.67a3.08,3.08,0,0,0,2.92-2l.89-2,8.13-20.8L107,96.51h7.58L125.05,124l1,2.49Z" />
</svg>
